<?xml version="1.0" encoding="UTF-8" standalone="no"?>
<!-- Created with Inkscape (http://www.inkscape.org/) -->

<svg
   version="1.1"
   id="svg1"
   width="4000"
   height="2666.6667"
   viewBox="0 0 4000 2666.6667"
   sodipodi:docname="Businessman_with_telescope.eps"
   xmlns:inkscape="http://www.inkscape.org/namespaces/inkscape"
   xmlns:sodipodi="http://sodipodi.sourceforge.net/DTD/sodipodi-0.dtd"
   xmlns="http://www.w3.org/2000/svg"
   xmlns:svg="http://www.w3.org/2000/svg">
  <defs
     id="defs1" />
  <sodipodi:namedview
     id="namedview1"
     pagecolor="#ffffff"
     bordercolor="#000000"
     borderopacity="0.25"
     inkscape:showpageshadow="2"
     inkscape:pageopacity="0.0"
     inkscape:pagecheckerboard="0"
     inkscape:deskcolor="#d1d1d1">
    <inkscape:page
       x="0"
       y="0"
       inkscape:label="1"
       id="page1"
       width="4000"
       height="2666.6667"
       margin="0"
       bleed="0" />
  </sodipodi:namedview>
  <g
     id="g1"
     inkscape:groupmode="layer"
     inkscape:label="1">
    <g
       id="group-R5">
      <path
         id="path2"
         d="M 0,0 H 30000 V 20000 H 0 Z"
         style="fill:#eaeaff;fill-opacity:1;fill-rule:nonzero;stroke:none"
         transform="matrix(0.13333333,0,0,-0.13333333,0,2666.6667)" />
      <path
         id="path3"
         d="m 23297,7612.7 c -3102.3,0 -5617.3,2515 -5617.3,5617.4 0,3102.3 2515,5617.3 5617.3,5617.3 3102.4,0 5617.4,-2515 5617.4,-5617.3 0,-3102.4 -2515,-5617.4 -5617.4,-5617.4 m -4249,5617.4 v 0 c 0,-2346.7 1902.3,-4249.1 4249,-4249.1 2346.7,0 4249.1,1902.4 4249.1,4249.1 v 0 0 c 0,2346.7 -1902.4,4249 -4249.1,4249 -2346.7,0 -4249,-1902.3 -4249,-4249 v 0"
         style="fill:#ece4ec;fill-opacity:1;fill-rule:nonzero;stroke:none"
         transform="matrix(0.13333333,0,0,-0.13333333,0,2666.6667)" />
      <path
         id="path4"
         d="m 23297,8981 c -2346.7,0 -4249,1902.4 -4249,4249.1 0,2346.7 1902.3,4249 4249,4249 2346.7,0 4249.1,-1902.3 4249.1,-4249 0,-2346.7 -1902.4,-4249.1 -4249.1,-4249.1 m -793.6,6878.7 390.2,-2270.9 c 29.9,-173.6 218.5,-303.2 441.6,-303.2 h 884.6 c 223,0 411.7,129.6 441.5,303.2 l 72.8,423.2 c 40.3,-9.1 81.9,-13.9 124.6,-13.9 352.5,0 639.3,327.2 639.3,729.3 0,354.8 -223.3,651.3 -517.9,716.2 l 71.5,416.1 h -2548.2"
         style="fill:#efdcd1;fill-opacity:1;fill-rule:nonzero;stroke:none"
         transform="matrix(0.13333333,0,0,-0.13333333,0,2666.6667)" />
      <path
         id="path5"
         d="m 24858.7,14099 c -36.8,0 -72.8,4.4 -107.5,12.6 L 24963,15344 c 247.1,-56.8 434,-311.7 434,-616.6 0,-346.5 -241.5,-628.4 -538.3,-628.4"
         style="fill:#efdcd1;fill-opacity:1;fill-rule:nonzero;stroke:none"
         transform="matrix(0.13333333,0,0,-0.13333333,0,2666.6667)" />
      <path
         id="path6"
         d="m 24266.7,10040 c -1386.2,738.8 -3973.4,53.3 -4727.1,-1379 -783.5,621.9 -1900,615.8 -2739.6,-114.3 -613.3,-533.4 -1056.2,-1653.8 -533.3,-2506.7 -359.9,434 -851.8,473.2 -1408.9,387 -557.2,-86.2 -1056.3,-481.3 -1268.1,-1003.7 -514.9,809.5 -1662,1142.5 -2530.3,734.4 -868.2,-408.1 -1343.88,-1503.8 -1049.1,-2416.8 -644.72,676.2 -1740.66,870.8 -2578.78,458 C 6593.41,3786 6079.78,2798.5 6222.95,1875.3 l -49.62,-4595.3 19519.97,400 -1426.6,12360"
         style="fill:#ffffff;fill-opacity:1;fill-rule:nonzero;stroke:none"
         transform="matrix(0.13333333,0,0,-0.13333333,0,2666.6667)" />
      <path
         id="path7"
         d="m 21342,-329.898 h 8815.4 V 11213.6 H 21342 V -329.898"
         style="fill:#7f81ff;fill-opacity:1;fill-rule:nonzero;stroke:none"
         transform="matrix(0.13333333,0,0,-0.13333333,0,2666.6667)" />
      <path
         id="path8"
         d="m 27273.6,-328.5 h 2883.8 V 11215.1 H 27273.6 V -328.5"
         style="fill:#5254cf;fill-opacity:1;fill-rule:nonzero;stroke:none"
         transform="matrix(0.13333333,0,0,-0.13333333,0,2666.6667)" />
      <path
         id="path9"
         d="m 24858.7,15355.8 c -296.9,0 -538.4,-281.9 -538.4,-628.4 0,-346.5 241.5,-628.4 538.4,-628.4 296.8,0 538.3,281.9 538.3,628.4 0,346.5 -241.5,628.4 -538.3,628.4 m 0,-1357.7 c -352.5,0 -639.3,327.2 -639.3,729.3 0,402.2 286.8,729.4 639.3,729.4 352.5,0 639.3,-327.2 639.3,-729.4 0,-402.1 -286.8,-729.3 -639.3,-729.3"
         style="fill:#ffb147;fill-opacity:1;fill-rule:nonzero;stroke:none"
         transform="matrix(0.13333333,0,0,-0.13333333,0,2666.6667)" />
      <path
         id="path10"
         d="m 22690.7,15355.8 c -296.9,0 -538.4,-281.9 -538.4,-628.4 0,-346.5 241.5,-628.4 538.4,-628.4 296.8,0 538.3,281.9 538.3,628.4 0,346.5 -241.5,628.4 -538.3,628.4 z m 0,-1357.7 c -352.6,0 -639.4,327.2 -639.4,729.3 0,402.2 286.8,729.4 639.4,729.4 352.5,0 639.3,-327.2 639.3,-729.4 0,-402.1 -286.8,-729.3 -639.3,-729.3"
         style="fill:#ffb147;fill-opacity:1;fill-rule:nonzero;stroke:none"
         transform="matrix(0.13333333,0,0,-0.13333333,0,2666.6667)" />
      <path
         id="path11"
         d="m 23531.3,13148.6 114.3,-707.7 h 263.7 l 114.4,707.7 h -492.4"
         style="fill:#bf8535;fill-opacity:1;fill-rule:nonzero;stroke:none"
         transform="matrix(0.13333333,0,0,-0.13333333,0,2666.6667)" />
      <path
         id="path12"
         d="m 23285.2,13360.1 102.1,-187.2 c 39.4,-72.3 115.2,-117.2 197.6,-117.2 h 385.2 c 82.3,0 158.1,44.9 197.5,117.2 l 102.1,187.2 h -984.5"
         style="fill:#bf8535;fill-opacity:1;fill-rule:nonzero;stroke:none"
         transform="matrix(0.13333333,0,0,-0.13333333,0,2666.6667)" />
      <path
         id="path13"
         d="m 23396.4,12126.6 79.1,260.1 c 30.5,100.4 89.1,162.9 152.9,162.9 h 298.2 c 63.7,0 122.4,-62.5 152.9,-162.9 l 79,-260.1 h -762.1"
         style="fill:#bf8535;fill-opacity:1;fill-rule:nonzero;stroke:none"
         transform="matrix(0.13333333,0,0,-0.13333333,0,2666.6667)" />
      <path
         id="path14"
         d="m 24431,11213 h -1307 v 967.8 h 1307 V 11213"
         style="fill:#1b1b43;fill-opacity:1;fill-rule:nonzero;stroke:none"
         transform="matrix(0.13333333,0,0,-0.13333333,0,2666.6667)" />
      <path
         id="path15"
         d="m 22503.4,15859.7 390.2,-2270.9 c 29.9,-173.6 218.5,-303.2 441.6,-303.2 h 884.6 c 223,0 411.7,129.6 441.5,303.2 l 390.3,2270.9 h -2548.2"
         style="fill:#ffb147;fill-opacity:1;fill-rule:nonzero;stroke:none"
         transform="matrix(0.13333333,0,0,-0.13333333,0,2666.6667)" />
      <path
         id="path16"
         d="m 24320,14840 c -100.9,0 -182.8,117.6 -182.8,262.7 0,145.1 81.9,262.7 182.8,262.7 100.9,0 182.8,-117.6 182.8,-262.7 0,-145.1 -81.9,-262.7 -182.8,-262.7"
         style="fill:#ffe0b5;fill-opacity:1;fill-rule:nonzero;stroke:none"
         transform="matrix(0.13333333,0,0,-0.13333333,0,2666.6667)" />
      <path
         id="path17"
         d="m 7721.25,15660.9 c -41.67,79.7 -21.31,186.9 46.69,245.8 68,58.8 176.95,63.6 249.89,11 -15.84,76.3 27.99,160.7 99.5,191.7 71.51,31 163.08,5.1 207.87,-58.7 26.53,274.8 228.78,524.6 492.06,607.6 263.27,83.1 572.22,-5.4 751.65,-215.2 139.67,134.9 405.82,91.8 495.89,-80.1 80.6,59.8 194,72 285.5,30.7 91.5,-41.3 157.4,-134.4 165.9,-234.4 608.1,243 1282.7,29.9 1710.5,-466 l -4505.45,-32.4"
         style="fill:#ffffff;fill-opacity:1;fill-rule:nonzero;stroke:none"
         transform="matrix(0.13333333,0,0,-0.13333333,0,2666.6667)" />
      <path
         id="path18"
         d="m 20598.2,14279.3 c -106.7,266.2 -399,445.2 -684.6,419.3 -38.7,313 -387.4,510.5 -702.4,496.1 -315,-14.3 -599.7,-182 -869.7,-345 -165.2,129.6 -439.3,80.6 -549.4,-98.3 -229.4,197.2 -615.5,172.7 -818.1,-52 -242.3,28.8 -491.2,-152.5 -538,-392 l 4162.2,-28.1"
         style="fill:#ffffff;fill-opacity:1;fill-rule:nonzero;stroke:none"
         transform="matrix(0.13333333,0,0,-0.13333333,0,2666.6667)" />
      <path
         id="path19"
         d="m 10985.6,-993 c -256.2,941.5 177.2,2027.4 1011.3,2533.8 834.1,506.3 1997.5,389.7 2714.6,-272.1 177.5,829.5 797.1,1550.7 1590.4,1851.1 793.3,300.3 1735.3,170.4 2417.6,-333.6 206.2,546.4 667.1,990.4 1220.7,1176.2 553.6,185.7 1189.1,109.5 1683.1,-201.9 -61.1,824.9 216.7,1759.5 1024.2,2138.1 950.3,445.5 1832.5,181.4 2632.5,-378.6 1280,2360 4800,2000 5440,560 l 840,-7960 -20200,-1000 -374.4,1887"
         style="fill:#eaeaff;fill-opacity:1;fill-rule:nonzero;stroke:none"
         transform="matrix(0.13333333,0,0,-0.13333333,0,2666.6667)" />
      <path
         id="path20"
         d="m 16564.9,-1187.3 c -420.8,356.402 -511.9,1041.902 -198.8,1495.8 313.1,453.902 986.2,612.199 1468.8,345.5 159.5,525.8 587.3,962.3 1109.7,1132.4 522.5,170.1 1125.3,69 1563.7,-262.1 12.1,604.7 503.2,1164.5 1101.1,1255.3 598,90.7 1233,-298.2 1423.9,-872.1 348.1,524.3 1201.5,603.7 1640.3,152.7 -98.2,616.2 205.5,1277.6 736.9,1604.7 531.4,327.1 1258.7,300.3 1764.5,-65 807.5,529 1899.7,589.7 2760.7,153.2 861,-436.4 1457.9,-1353.1 1508.6,-2317.1 l 1035.7,-4356 -15400,-320 -515.1,2052.7"
         style="fill:#ffffff;fill-opacity:1;fill-rule:nonzero;stroke:none"
         transform="matrix(0.13333333,0,0,-0.13333333,0,2666.6667)" />
      <path
         id="path21"
         d="M 7760,-705.5 H -591.461 v 8480 H 7760 v -8480"
         style="fill:#7f81ff;fill-opacity:1;fill-rule:nonzero;stroke:none"
         transform="matrix(0.13333333,0,0,-0.13333333,0,2666.6667)" />
      <path
         id="path22"
         d="M 2140.63,-704.398 H -591.461 V 7775.6 H 2140.63 V -704.398"
         style="fill:#5254cf;fill-opacity:1;fill-rule:nonzero;stroke:none"
         transform="matrix(0.13333333,0,0,-0.13333333,0,2666.6667)" />
      <path
         id="path23"
         d="m 5627.6,8107.5 c 0,-7.5 -15.1,-330 -15.1,-330 l 509.21,-2.5 -214.21,200 -61.75,142.5 -218.15,-10"
         style="fill:#1b1b43;fill-opacity:1;fill-rule:nonzero;stroke:none"
         transform="matrix(0.13333333,0,0,-0.13333333,0,2666.6667)" />
      <path
         id="path24"
         d="m 5836.64,7873.4 -28.28,28.2 85,85 28.28,-28.2 -85,-85"
         style="fill:#ffffff;fill-opacity:1;fill-rule:nonzero;stroke:none"
         transform="matrix(0.13333333,0,0,-0.13333333,0,2666.6667)" />
      <path
         id="path25"
         d="M 5843.33,10383.3 C 6056.21,9801.4 6020,8920 5920,8066.7 h -326.67 c -27.72,913.9 -115.56,1766.5 -326.66,2493.3 l 576.66,-176.7"
         style="fill:#1b1b43;fill-opacity:1;fill-rule:nonzero;stroke:none"
         transform="matrix(0.13333333,0,0,-0.13333333,0,2666.6667)" />
      <path
         id="path26"
         d="m 4797.5,8167.5 c 0,-7.5 -75,-390 -75,-390 l -472.5,-2.5 210,210 102.5,207.5 235,-25"
         style="fill:#1b1b43;fill-opacity:1;fill-rule:nonzero;stroke:none"
         transform="matrix(0.13333333,0,0,-0.13333333,0,2666.6667)" />
      <path
         id="path27"
         d="m 4537.99,7876.2 -90,95 29.02,27.5 90,-95 -29.02,-27.5"
         style="fill:#ffffff;fill-opacity:1;fill-rule:nonzero;stroke:none"
         transform="matrix(0.13333333,0,0,-0.13333333,0,2666.6667)" />
      <path
         id="path28"
         d="m 4473.33,8113.3 c 220,793.4 385.51,1668.2 513.34,2393.4 l 580,-13.4 C 5447.61,9613.7 5177.18,8832.9 4833.33,8100 l -360,13.3"
         style="fill:#1b1b43;fill-opacity:1;fill-rule:nonzero;stroke:none"
         transform="matrix(0.13333333,0,0,-0.13333333,0,2666.6667)" />
      <path
         id="path29"
         d="m 6672.5,11900 -3.75,126.3 c -31.6,31.9 -58.57,89 -82.5,162.5 l 228.75,53.7 c 28.69,-55.2 31.34,-123.8 23.75,-197.5 l 36.25,-210 -202.5,65"
         style="fill:#ffbc96;fill-opacity:1;fill-rule:nonzero;stroke:none"
         transform="matrix(0.13333333,0,0,-0.13333333,0,2666.6667)" />
      <path
         id="path30"
         d="M 6880.8,11515.2 C 6832.4,11289.2 6720,11080 6380,11170 l -114,31.2 -336,92 -30.4,74.4 -168,412.4 c 293.6,-71.6 570,-151.6 798.4,-256.8 l 120,396.8 270,-70 c 20.8,-6.8 -31.6,-298.8 -39.2,-334.8"
         style="fill:#5254cf;fill-opacity:1;fill-rule:nonzero;stroke:none"
         transform="matrix(0.13333333,0,0,-0.13333333,0,2666.6667)" />
      <path
         id="path31"
         d="m 6266,11201.2 -336,92 -30.4,74.4 13.6,55.6 c 146.4,-18.8 262.4,-95.2 352.8,-222"
         style="fill:#1b1b43;fill-opacity:1;fill-rule:nonzero;stroke:none"
         transform="matrix(0.13333333,0,0,-0.13333333,0,2666.6667)" />
      <path
         id="path32"
         d="m 7520,12313.2 -684.8,-127.6 -142.4,-26.4 -46.4,-8.8 -43.6,-8 -268.4,-50 -334.4,-62.4 -17.6,90 320,105.2 1154.4,379.6 63.2,-291.6"
         style="fill:#fe5b52;fill-opacity:1;fill-rule:nonzero;stroke:none"
         transform="matrix(0.13333333,0,0,-0.13333333,0,2666.6667)" />
      <path
         id="path33"
         d="m 6672.5,11913.8 180.63,55 17.5,-105.7 z"
         style="fill:#1b1b43;fill-opacity:1;fill-rule:nonzero;stroke:none"
         transform="matrix(0.13333333,0,0,-0.13333333,0,2666.6667)" />
      <path
         id="path34"
         d="m 6697.5,12142.5 c 6.65,-30.6 1.98,-50.8 -23.33,-50.8 -25.32,0 -18.59,22 -25.84,52.5 -8.33,35 -29.48,62.5 -4.16,62.5 25.31,0 45,-25.9 53.33,-64.2"
         style="fill:#ffbc96;fill-opacity:1;fill-rule:nonzero;stroke:none"
         transform="matrix(0.13333333,0,0,-0.13333333,0,2666.6667)" />
      <path
         id="path35"
         d="m 6060,10265 -270,25 -58.33,1490 188.33,-415 140,-1100"
         style="fill:#1b1b43;fill-opacity:1;fill-rule:nonzero;stroke:none"
         transform="matrix(0.13333333,0,0,-0.13333333,0,2666.6667)" />
      <path
         id="path36"
         d="m 4655,10593.3 c 10.02,-34.7 24.67,-68.7 43.24,-99.7 16.82,-28.1 40.86,-55.5 67.68,-74.3 13.11,-9.2 29.72,-18.8 46.44,-16.9 19.09,2.2 29.27,18.6 49.31,20.9 28.33,3.4 53.33,35 53.33,35 l 15.82,16.6 c 13.5,14.1 17.21,34.7 10.17,52.9 -28.62,74.1 -79.36,140 -175.99,172.2 l -110,-106.7"
         style="fill:#ffbc96;fill-opacity:1;fill-rule:nonzero;stroke:none"
         transform="matrix(0.13333333,0,0,-0.13333333,0,2666.6667)" />
      <path
         id="path37"
         d="m 5731.67,11780 c 96.1,-475.3 117.13,-938.2 111.66,-1396.7 -204.7,-31.8 -414.51,-23.3 -630,30 l 160.42,1383.6 166.25,-43.6 191.67,26.7"
         style="fill:#ffffff;fill-opacity:1;fill-rule:nonzero;stroke:none"
         transform="matrix(0.13333333,0,0,-0.13333333,0,2666.6667)" />
      <path
         id="path38"
         d="m 5731.67,11780 c 308.53,-350.1 388.64,-912.9 408.33,-1540 l -116.67,-123.3 c -23.33,490 -90,1163.3 -291.66,1663.3"
         style="fill:#5254cf;fill-opacity:1;fill-rule:nonzero;stroke:none"
         transform="matrix(0.13333333,0,0,-0.13333333,0,2666.6667)" />
      <path
         id="path39"
         d="m 5373.75,11796.9 c 206.25,-606 92.39,-1153.4 -97.08,-1686.9 l -473.34,106.7 c 118.34,364.6 211.34,723.9 210,1063.3 l 360.42,516.9"
         style="fill:#5254cf;fill-opacity:1;fill-rule:nonzero;stroke:none"
         transform="matrix(0.13333333,0,0,-0.13333333,0,2666.6667)" />
      <path
         id="path40"
         d="m 5373.75,11796.9 -293.91,-67.6 c -103.09,-23.7 -199.73,-69.7 -283.14,-134.7 l -399.53,-327.3 c -102.7,-84.2 -120.67,-234.4 -40.71,-340.4 l 286.87,-380.2 174.17,148.3 -147.5,332.5 343.33,252.5 360.42,516.9"
         style="fill:#5254cf;fill-opacity:1;fill-rule:nonzero;stroke:none"
         transform="matrix(0.13333333,0,0,-0.13333333,0,2666.6667)" />
      <path
         id="path41"
         d="m 5013.33,11280 110,98.3 C 5140.39,11287.2 5090,11115 5000,11046.7 l 13.33,233.3"
         style="fill:#1b1b43;fill-opacity:1;fill-rule:nonzero;stroke:none"
         transform="matrix(0.13333333,0,0,-0.13333333,0,2666.6667)" />
      <path
         id="path42"
         d="m 5155.43,10258.5 -17.54,9.6 c 150.94,275.1 280.12,730.1 229.2,1127.9 l -115.59,149.6 102.99,195.7 17.7,-9.3 -97.01,-184.3 111.05,-143.7 0.35,-2.7 c 52.42,-402.9 -78.32,-864.3 -231.15,-1142.8"
         style="fill:#1b1b43;fill-opacity:1;fill-rule:nonzero;stroke:none"
         transform="matrix(0.13333333,0,0,-0.13333333,0,2666.6667)" />
      <path
         id="path43"
         d="m 5439.17,11882.5 -1.67,-78.3 -63.75,-7.3 c 124.77,-98.5 245.2,-115.3 357.92,-16.9 l -65,6.7 -6.67,147.5 -230,19.1 9.17,-70.8"
         style="fill:#ffbc96;fill-opacity:1;fill-rule:nonzero;stroke:none"
         transform="matrix(0.13333333,0,0,-0.13333333,0,2666.6667)" />
      <path
         id="path44"
         d="m 5500,11902.5 c 32.14,-69.8 90.83,-125.8 166.67,-116.7 l -3.54,88.6 -163.13,28.1"
         style="fill:#1b1b43;fill-opacity:1;fill-rule:nonzero;stroke:none"
         transform="matrix(0.13333333,0,0,-0.13333333,0,2666.6667)" />
      <path
         id="path45"
         d="m 5712.5,12050.8 c 20,-96.6 30.83,-205.8 -43.33,-212.5 -66.7,-6 -220.84,31.7 -218.34,180.5 1.27,75.6 54.49,131.9 121.25,137 97.09,7.5 125.08,-30.8 140.42,-105"
         style="fill:#ffbc96;fill-opacity:1;fill-rule:nonzero;stroke:none"
         transform="matrix(0.13333333,0,0,-0.13333333,0,2666.6667)" />
      <path
         id="path46"
         d="m 5756.67,12017.5 c 12.3,-17.2 -14.17,-43.3 -39.17,-50 -18.23,-4.9 -34.17,23 -34.17,44.2 0,21.1 -1.35,53.3 17.5,52.5 19.17,-0.9 39.17,-23.4 55.84,-46.7"
         style="fill:#ffbc96;fill-opacity:1;fill-rule:nonzero;stroke:none"
         transform="matrix(0.13333333,0,0,-0.13333333,0,2666.6667)" />
      <path
         id="path47"
         d="m 5520.83,11964.2 c -46.49,-5.7 -72.94,-33.8 -81.66,-81.7 -106.7,84 -141.08,170.2 -30,260.8 0,0 24.16,178.4 220,114.2 59.16,-22.5 84.16,-50 158.33,-28.3 -35.83,-147.5 -128.77,-162.2 -238.33,-125.9 -25.43,-27.6 -29.7,-59.4 -19.17,-94.1 l -9.17,-45"
         style="fill:#1b1b43;fill-opacity:1;fill-rule:nonzero;stroke:none"
         transform="matrix(0.13333333,0,0,-0.13333333,0,2666.6667)" />
      <path
         id="path48"
         d="m 5545,11965 c -14.48,-14.5 -40.86,-11.6 -58.93,6.5 -18.06,18.1 -20.96,44.4 -6.48,58.9 14.48,14.5 40.86,11.6 58.93,-6.5 18.06,-18 20.96,-44.4 6.48,-58.9"
         style="fill:#ffbc96;fill-opacity:1;fill-rule:nonzero;stroke:none"
         transform="matrix(0.13333333,0,0,-0.13333333,0,2666.6667)" />
      <path
         id="path49"
         d="m 7550.49,12474.6 c 18.34,-80.2 7.02,-151.2 -25.28,-158.6 -32.31,-7.4 -73.36,51.7 -91.7,131.9 -18.33,80.2 -7.01,151.2 25.29,158.6 32.3,7.4 73.36,-51.7 91.69,-131.9"
         style="fill:#1b1b43;fill-opacity:1;fill-rule:nonzero;stroke:none"
         transform="matrix(0.13333333,0,0,-0.13333333,0,2666.6667)" />
      <path
         id="path50"
         d="m 6334.4,12092.4 -334.4,-62.4 -17.6,90 320,105.2 32,-132.8"
         style="fill:#1b1b43;fill-opacity:1;fill-rule:nonzero;stroke:none"
         transform="matrix(0.13333333,0,0,-0.13333333,0,2666.6667)" />
    </g>
  </g>
</svg>
